<?xml version="1.0" standalone="no"?><svg xmlns="http://www.w3.org/2000/svg" viewBox="0 0 1440 320"><path fill="#15181c" fill-opacity="1" d="M0,64L10.9,96C21.8,128,44,192,65,218.7C87.3,245,109,235,131,213.3C152.7,192,175,160,196,149.3C218.2,139,240,149,262,154.7C283.6,160,305,160,327,181.3C349.1,203,371,245,393,245.3C414.5,245,436,203,458,160C480,117,502,75,524,90.7C545.5,107,567,181,589,197.3C610.9,213,633,171,655,144C676.4,117,698,107,720,122.7C741.8,139,764,181,785,165.3C807.3,149,829,75,851,64C872.7,53,895,107,916,149.3C938.2,192,960,224,982,202.7C1003.6,181,1025,107,1047,74.7C1069.1,43,1091,53,1113,64C1134.5,75,1156,85,1178,122.7C1200,160,1222,224,1244,256C1265.5,288,1287,288,1309,245.3C1330.9,203,1353,117,1375,112C1396.4,107,1418,181,1429,218.7L1440,256L1440,0L1429.1,0C1418.2,0,1396,0,1375,0C1352.7,0,1331,0,1309,0C1287.3,0,1265,0,1244,0C1221.8,0,1200,0,1178,0C1156.4,0,1135,0,1113,0C1090.9,0,1069,0,1047,0C1025.5,0,1004,0,982,0C960,0,938,0,916,0C894.5,0,873,0,851,0C829.1,0,807,0,785,0C763.6,0,742,0,720,0C698.2,0,676,0,655,0C632.7,0,611,0,589,0C567.3,0,545,0,524,0C501.8,0,480,0,458,0C436.4,0,415,0,393,0C370.9,0,349,0,327,0C305.5,0,284,0,262,0C240,0,218,0,196,0C174.5,0,153,0,131,0C109.1,0,87,0,65,0C43.6,0,22,0,11,0L0,0Z"></path></svg>